<svg xmlns="http://www.w3.org/2000/svg" width="32" height="32" viewBox="0 0 32 32" fill="none">
  <circle cx="16" cy="16" r="14" fill="#3B82F6" stroke="#1E40AF" stroke-width="2"/>
  <path d="M16 2 C10 2, 6 6, 6 8 L6 12 C6 14, 10 18, 16 18 C22 18, 26 14, 26 12 L26 8 C26 6, 22 2, 16 2 Z" fill="#60A5FA"/>
  <path d="M16 18 C10 18, 6 22, 6 24 L6 28 C6 30, 10 30, 16 30 C22 30, 26 30, 26 28 L26 24 C26 22, 22 18, 16 18 Z" fill="#60A5FA"/>
  <path d="M2 16 L30 16" stroke="#1E40AF" stroke-width="1.5" stroke-linecap="round"/>
  <path d="M16 2 C10 2, 6 6, 6 8" stroke="#1E40AF" stroke-width="1.5" stroke-linecap="round" fill="none"/>
  <path d="M16 30 C10 30, 6 26, 6 24" stroke="#1E40AF" stroke-width="1.5" stroke-linecap="round" fill="none"/>
  <path d="M26 8 C26 6, 22 2, 16 2" stroke="#1E40AF" stroke-width="1.5" stroke-linecap="round" fill="none"/>
  <path d="M26 24 C26 26, 22 30, 16 30" stroke="#1E40AF" stroke-width="1.5" stroke-linecap="round" fill="none"/>
</svg>

